<?xml version="1.0" standalone="no"?><!DOCTYPE svg PUBLIC "-//W3C//DTD SVG 1.1//EN" "http://www.w3.org/Graphics/SVG/1.1/DTD/svg11.dtd"><svg t="1617273688198" class="icon" viewBox="0 0 1024 1024" version="1.1" xmlns="http://www.w3.org/2000/svg" p-id="1138" xmlns:xlink="http://www.w3.org/1999/xlink" width="200" height="200"><defs><style type="text/css"></style></defs><path d="M516.551111 696.149333c0 5.006222 3.896889 9.130667 8.590222 9.130667h211.427556c4.664889 0 8.561778-4.124444 8.561778-9.130667v-54.869333c0-5.034667-3.896889-9.130667-8.561778-9.130667h-211.427556c-4.693333 0-8.590222 4.096-8.590222 9.130667v54.869333z m-222.72 6.968889l219.420445-184.007111a9.216 9.216 0 0 0 0-14.051555l-219.448889-183.893334a9.102222 9.102222 0 0 0-14.961778 6.968889v71.68c0 2.730667 1.137778 5.233778 3.328 6.940445l125.468444 105.386666-125.468444 105.358222a9.272889 9.272889 0 0 0-3.328 6.968889v71.68a9.102222 9.102222 0 0 0 14.961778 6.968889zM932.522667 54.983111H91.420444c-20.224 0-36.579556 16.355556-36.579555 36.579556v841.159111c0 20.195556 16.355556 36.551111 36.579555 36.551111h841.130667c20.224 0 36.579556-16.327111 36.579556-36.551111V91.562667c0-20.224-16.355556-36.579556-36.579556-36.579556z m-45.710223 832H137.130667V137.272889h749.710222v749.710222z" p-id="1139"></path></svg>